<svg id="Layer_1" data-name="Layer 1" xmlns="http://www.w3.org/2000/svg" xmlns:xlink="http://www.w3.org/1999/xlink" viewBox="0 0 368 109.04"><defs><style>.cls-1{fill:#a6a6a6;}.cls-10,.cls-2,.cls-3{fill:#fff;}.cls-2{stroke:#fff;stroke-miterlimit:10;stroke-width:0.2px;}.cls-4{fill:url(#linear-gradient);}.cls-5{fill:url(#linear-gradient-2);}.cls-6{fill:url(#linear-gradient-3);}.cls-7{fill:url(#linear-gradient-4);}.cls-8{opacity:0.2;}.cls-10,.cls-8,.cls-9{isolation:isolate;}.cls-9{opacity:0.12;}.cls-10{opacity:0.25;}</style><linearGradient id="linear-gradient" x1="455.41" y1="978.19" x2="409.66" y2="1023.94" gradientTransform="translate(0 -726)" gradientUnits="userSpaceOnUse"><stop offset="0" stop-color="#00a0ff"/><stop offset="0.01" stop-color="#00a1ff"/><stop offset="0.26" stop-color="#00beff"/><stop offset="0.51" stop-color="#00d2ff"/><stop offset="0.76" stop-color="#00dfff"/><stop offset="1" stop-color="#00e3ff"/></linearGradient><linearGradient id="linear-gradient-2" x1="488.23" y1="1009.12" x2="422.27" y2="1009.12" gradientTransform="translate(0 -726)" gradientUnits="userSpaceOnUse"><stop offset="0" stop-color="#ffe000"/><stop offset="0.41" stop-color="#ffbd00"/><stop offset="0.78" stop-color="orange"/><stop offset="1" stop-color="#ff9c00"/></linearGradient><linearGradient id="linear-gradient-3" x1="463.65" y1="1015.21" x2="401.61" y2="1077.25" gradientTransform="translate(0 -726)" gradientUnits="userSpaceOnUse"><stop offset="0" stop-color="#ff3a44"/><stop offset="1" stop-color="#c31162"/></linearGradient><linearGradient id="linear-gradient-4" x1="415.79" y1="955.04" x2="443.5" y2="982.74" gradientTransform="translate(0 -726)" gradientUnits="userSpaceOnUse"><stop offset="0" stop-color="#32a071"/><stop offset="0.07" stop-color="#2da771"/><stop offset="0.48" stop-color="#15cf74"/><stop offset="0.8" stop-color="#06e775"/><stop offset="1" stop-color="#00f076"/></linearGradient></defs><title>iso-store</title><path d="M750.37,337.5H409.63A13.5,13.5,0,0,1,396,323.87V242.09a13.5,13.5,0,0,1,13.63-13.63H750.37A13.5,13.5,0,0,1,764,242.09v81.78A13.5,13.5,0,0,1,750.37,337.5Z" transform="translate(-396 -228.46)"/><path class="cls-1" d="M750.37,230.64a11.52,11.52,0,0,1,11.45,11.45v81.78a11.52,11.52,0,0,1-11.45,11.45H409.63a11.52,11.52,0,0,1-11.45-11.45V242.09a11.52,11.52,0,0,1,11.45-11.45H750.37m0-2.18H409.63A13.67,13.67,0,0,0,396,242.09v81.78a13.5,13.5,0,0,0,13.63,13.63H750.37A13.5,13.5,0,0,0,764,323.87V242.09A13.67,13.67,0,0,0,750.37,228.46Z" transform="translate(-396 -228.46)"/><path class="cls-2" d="M525.21,256.27a7.42,7.42,0,0,1-1.91,5.45,8.48,8.48,0,1,1-6-14.45,7.26,7.26,0,0,1,3.27.82A5.94,5.94,0,0,1,523,250l-1.36,1.36a5.08,5.08,0,0,0-4.36-1.91,5.42,5.42,0,0,0-4.36,1.91,6.58,6.58,0,0,0,0,9.27,7,7,0,0,0,4.36,1.91,6,6,0,0,0,4.63-1.91,4.51,4.51,0,0,0,1.36-3.27h-6v-2.18h7.91Zm12.54-6.81h-7.36v5.18h6.81v1.91h-6.81v5.18h7.36v2.18h-9.54V247.54h9.54Zm9,14.45h-2.18V249.45h-4.63v-1.91h11.45v1.91h-4.63Zm12.54,0V247.54h2.18V263.9Zm11.45,0h-2.18V249.45h-4.63v-1.91h11.18v1.91h-4.63V263.9Zm25.9-2.18a8.56,8.56,0,1,1,2.45-6A8,8,0,0,1,596.63,261.72Zm-10.36-1.36a6.43,6.43,0,0,0,4.36,1.91,5.42,5.42,0,0,0,4.36-1.91,6.58,6.58,0,0,0,1.91-4.63,5.62,5.62,0,0,0-1.91-4.63,6.43,6.43,0,0,0-4.36-1.91,5.42,5.42,0,0,0-4.36,1.91,6.58,6.58,0,0,0-1.91,4.63A5.62,5.62,0,0,0,586.27,260.36Zm15.81,3.54V247.54h2.45l7.91,12.81V247.54h2.18V263.9h-2.18L604,250.54V263.9Z" transform="translate(-396 -228.46)"/><path class="cls-3" d="M581.64,287.89a11.47,11.47,0,0,0-11.72,11.72,11.63,11.63,0,0,0,11.72,11.72,11.47,11.47,0,0,0,11.72-11.72A11.31,11.31,0,0,0,581.64,287.89Zm0,18.54a7.11,7.11,0,0,1,0-14.17c3.54,0,6.54,2.73,6.54,7.09A6.77,6.77,0,0,1,581.64,306.42Zm-25.35-18.54a11.47,11.47,0,0,0-11.72,11.72,11.63,11.63,0,0,0,11.72,11.72A11.47,11.47,0,0,0,568,299.61,11.31,11.31,0,0,0,556.28,287.89Zm0,18.54a7.11,7.11,0,0,1,0-14.17c3.54,0,6.54,2.73,6.54,7.09A6.77,6.77,0,0,1,556.28,306.42Zm-30.26-15v4.91h11.72a10.31,10.31,0,0,1-2.73,6.27,12.07,12.07,0,0,1-9,3.54,12.69,12.69,0,0,1-12.81-13.08A12.86,12.86,0,0,1,526,280a13.52,13.52,0,0,1,9,3.54l3.54-3.54a17.47,17.47,0,0,0-12.27-4.91c-9.81,0-18.26,8.18-18.26,18s8.45,18,18.26,18c5.45,0,9.27-1.64,12.54-5.18a16.41,16.41,0,0,0,4.36-11.45,10.22,10.22,0,0,0-.27-3Zm123.76,3.82c-1.09-2.73-3.82-7.36-9.81-7.36s-10.9,4.63-10.9,11.72a11.41,11.41,0,0,0,11.45,11.72,11.18,11.18,0,0,0,9.54-5.18l-3.82-2.73c-1.36,1.91-3,3.27-5.72,3.27s-4.36-1.09-5.72-3.54l15.54-6.54ZM634,299.06a6.62,6.62,0,0,1,6-6.81c1.91,0,3.82,1.09,4.36,2.45Zm-12.81,11.18h5.18V276.17h-5.18ZM613,290.34a9,9,0,0,0-6.27-2.73c-5.72,0-11.18,5.18-11.18,11.72a11.29,11.29,0,0,0,11.18,11.45,7.83,7.83,0,0,0,6-2.73H613v1.64c0,4.36-2.45,6.81-6.27,6.81a6.06,6.06,0,0,1-5.72-4.09l-4.36,1.91A11.25,11.25,0,0,0,607,321.14c6,0,10.9-3.54,10.9-12V288.43H613Zm-6,16.08a7.11,7.11,0,0,1,0-14.17c3.54,0,6.27,3,6.27,7.09S610.53,306.42,607,306.42Zm66.51-30.26H661.23v34.07h5.18V297.43h7.09c5.72,0,11.18-4.09,11.18-10.63S679.22,276.17,673.5,276.17Zm.27,16.36h-7.36V280.8h7.36a6,6,0,0,1,6,5.72C679.5,289.52,677.32,292.52,673.77,292.52Zm31.35-4.91c-3.82,0-7.63,1.64-9,5.18l4.63,1.91a4.82,4.82,0,0,1,4.63-2.45c2.73,0,5.18,1.64,5.45,4.36v.27a10.81,10.81,0,0,0-5.18-1.36c-4.91,0-9.81,2.73-9.81,7.63,0,4.63,4.09,7.63,8.45,7.63a7.67,7.67,0,0,0,6.54-3.27h.27v2.73H716V297.16C715.48,291.16,710.84,287.62,705.12,287.62Zm-.55,18.81c-1.64,0-4.09-.82-4.09-3,0-2.73,3-3.54,5.45-3.54a10.54,10.54,0,0,1,4.63,1.09A6.35,6.35,0,0,1,704.57,306.42Zm28.62-18-5.72,14.72h-.27l-6-14.72h-5.45l9,20.72-5.18,11.45h5.18l13.9-32.17Zm-45.8,21.81h5.18V276.17H687.4Z" transform="translate(-396 -228.46)"/><path class="cls-4" d="M424.35,248.91a5.33,5.33,0,0,0-1.09,3.82V313a5.39,5.39,0,0,0,1.36,3.82l.27.27,33.8-33.8v-.55Z" transform="translate(-396 -228.46)"/><path class="cls-5" d="M469.6,294.7l-11.18-11.18v-.82l11.18-11.18.27.27,13.36,7.63c3.82,2.18,3.82,5.72,0,7.91Z" transform="translate(-396 -228.46)"/><path class="cls-6" d="M469.87,294.43,458.42,283l-34.07,34.07c1.36,1.36,3.27,1.36,5.72.27l39.8-22.9" transform="translate(-396 -228.46)"/><path class="cls-7" d="M469.87,271.53l-39.8-22.63c-2.45-1.36-4.36-1.09-5.72.27L458.42,283Z" transform="translate(-396 -228.46)"/><path class="cls-8" d="M469.6,294.16l-39.53,22.35c-2.18,1.36-4.09,1.09-5.45,0l-.27.27.27.27c1.36,1.09,3.27,1.36,5.45,0Z" transform="translate(-396 -228.46)"/><path class="cls-9" d="M424.35,316.51a5.33,5.33,0,0,1-1.09-3.82V313a5.39,5.39,0,0,0,1.36,3.82v-.27Zm58.88-30-13.63,7.63.27.27,13.36-7.63c1.91-1.09,2.73-2.45,2.73-3.82C486,284.34,484.87,285.43,483.23,286.53Z" transform="translate(-396 -228.46)"/><path class="cls-10" d="M430.07,249.18l53.16,30.26c1.64,1.09,2.73,2.18,2.73,3.54,0-1.36-.82-2.73-2.73-3.82l-53.16-30.26c-3.82-2.18-6.81-.55-6.81,3.82V253C423.26,248.91,426.26,247,430.07,249.18Z" transform="translate(-396 -228.46)"/></svg>