<svg id="Layer_1" data-name="Layer 1" xmlns="http://www.w3.org/2000/svg" viewBox="0 0 49.6 49.6"><title>instagram</title><path d="M462.2,356.7A12.8,12.8,0,1,0,475,369.5,12.82,12.82,0,0,0,462.2,356.7Zm0,21a8.2,8.2,0,1,1,8.2-8.2A8.24,8.24,0,0,1,462.2,377.7Z" transform="translate(-437.4 -344.8)"/><circle cx="38.1" cy="11.6" r="2.9"/><path d="M483,348.9a14.24,14.24,0,0,0-10.5-4.1H451.9c-8.7,0-14.5,5.8-14.5,14.5v20.5a14.39,14.39,0,0,0,4.2,10.7,14.59,14.59,0,0,0,10.4,3.9h20.4a14.77,14.77,0,0,0,10.5-3.9,14.32,14.32,0,0,0,4.1-10.6V359.3A14.34,14.34,0,0,0,483,348.9Zm-.4,31a9.77,9.77,0,0,1-2.9,7.3,10.34,10.34,0,0,1-7.3,2.6H452a10.34,10.34,0,0,1-7.3-2.6,10.05,10.05,0,0,1-2.7-7.4V359.3a10,10,0,0,1,2.7-7.3,10.17,10.17,0,0,1,7.3-2.6h20.6a10,10,0,0,1,7.3,2.7,10.32,10.32,0,0,1,2.7,7.2v20.6Z" transform="translate(-437.4 -344.8)"/></svg>