<svg id="Group_92" data-name="Group 92" xmlns="http://www.w3.org/2000/svg" xmlns:xlink="http://www.w3.org/1999/xlink" width="335.676" height="80.313" viewBox="0 0 335.676 80.313">
  <defs>
    <clipPath id="clip-path">
      <path id="Path_58" data-name="Path 58" d="M185.5,61.6V42.411a5.587,5.587,0,0,1,5.587-5.587h4.489a13.283,13.283,0,0,1,7.24,2,13.685,13.685,0,0,1,4.941,5.477,17.49,17.49,0,0,1,0,15.337,13.943,13.943,0,0,1-4.941,5.513,13.182,13.182,0,0,1-7.24,2.031h-4.489A5.587,5.587,0,0,1,185.5,61.6m-1.55-31.486A5.587,5.587,0,0,0,178.36,35.7V68.3a5.587,5.587,0,0,0,5.587,5.587h11.625a20.081,20.081,0,0,0,18.194-10.864A23.4,23.4,0,0,0,216.415,52a22.935,22.935,0,0,0-2.686-11,20.8,20.8,0,0,0-7.449-7.947,19.987,19.987,0,0,0-10.708-2.947Z" transform="translate(-178.36 -30.112)" fill="none"/>
    </clipPath>
    <linearGradient id="linear-gradient" x1="-2.945" y1="1.402" x2="-2.929" y2="1.402" gradientUnits="objectBoundingBox">
      <stop offset="0" stop-color="#27ef8d"/>
      <stop offset="0.375" stop-color="#27ef8d"/>
      <stop offset="1" stop-color="#27ef8d"/>
    </linearGradient>
    <clipPath id="clip-path-2">
      <path id="Path_59" data-name="Path 59" d="M23.568,0a7.95,7.95,0,0,0,0,15.9l13.894.006a5.261,5.261,0,0,1,4.58,2.672L43.749,21.6a2.488,2.488,0,0,0,2.166,1.264H94.741A2.113,2.113,0,0,0,96.3,19.338,36.591,36.591,0,0,0,68.84,6.967H39.407a2.358,2.358,0,0,1-2.177-1.45L36.115,2.844A4.623,4.623,0,0,0,31.847,0Z" transform="translate(-15.618)" fill="none"/>
    </clipPath>
    <linearGradient id="linear-gradient-2" x1="-0.185" y1="1.43" x2="-0.177" y2="1.43" xlink:href="#linear-gradient"/>
    <clipPath id="clip-path-3">
      <path id="Path_60" data-name="Path 60" d="M8.021,46.7a8.021,8.021,0,1,0,0,16.041H43.756a6.446,6.446,0,0,1,5.951,3.969l.6,1.445a2.525,2.525,0,0,0,2.331,1.554H97.493a1.485,1.485,0,0,0,1.45-1.19,36.859,36.859,0,0,0,.241-13.746,1.323,1.323,0,0,0-1.3-1.105H45.657a2.1,2.1,0,0,1-1.942-1.3L42.663,49.82A5.074,5.074,0,0,0,37.979,46.7Z" transform="translate(0 -46.698)" fill="none"/>
    </clipPath>
    <linearGradient id="linear-gradient-3" x1="-0.075" y1="0.955" x2="-0.067" y2="0.955" xlink:href="#linear-gradient"/>
    <clipPath id="clip-path-4">
      <path id="Path_61" data-name="Path 61" d="M46.912,93.612a7.266,7.266,0,0,0,0,14.533H72.242a3.018,3.018,0,0,1,2.932,2.042l2.088,4.176a1.333,1.333,0,0,0,1.215.74,36.65,36.65,0,0,0,25.231-10.733q.7-.7,1.354-1.428a1.416,1.416,0,0,0-1.053-2.361H72.679a2.069,2.069,0,0,1-1.91-1.273l-1.282-3.072a4.265,4.265,0,0,0-3.936-2.623Z" transform="translate(-39.646 -93.612)" fill="none"/>
    </clipPath>
    <linearGradient id="linear-gradient-4" x1="-0.376" y1="0.999" x2="-0.367" y2="0.999" xlink:href="#linear-gradient"/>
    <clipPath id="clip-path-5">
      <path id="Path_62" data-name="Path 62" d="M257.594,50.2a10.207,10.207,0,0,0-1.274,1,1.035,1.035,0,0,1-1.8-.664l-.008-.177c0-.615-.73-1.105-1.335-1.108-1.127-.005-2.669-.006-4.078-.008a2.942,2.942,0,0,0-2.686,2.057l-.892,3.305a.872.872,0,0,0,.843,1.1,1.556,1.556,0,0,1,1.563,1.555V77.445a3.292,3.292,0,0,0,6.585-.009V64.93a10.569,10.569,0,0,1,2.009-6.717c1.332-1.683,3.47-3.283,5.542-3.283a1.83,1.83,0,0,1,.457.043,1.2,1.2,0,0,0,1.282-.763l1.19-3.914a.882.882,0,0,0-.618-1.162c-.212-.041-.348-.063-.663-.106h0a8.723,8.723,0,0,0-1.125-.065,8.478,8.478,0,0,0-4.994,1.241" transform="translate(-245.493 -48.962)" fill="none"/>
    </clipPath>
    <linearGradient id="linear-gradient-5" x1="-7.783" y1="1.56" x2="-7.752" y2="1.56" xlink:href="#linear-gradient"/>
    <clipPath id="clip-path-6">
      <path id="Path_63" data-name="Path 63" d="M283.048,49.191a3.319,3.319,0,0,0-3.205,2.458l-.681,2.531a1.17,1.17,0,0,0,1.13,1.473,1.17,1.17,0,0,1,1.17,1.17V77.409a3.275,3.275,0,0,0,3.265,3.266,3.329,3.329,0,0,0,3.319-3.319V52.51a3.319,3.319,0,0,0-3.319-3.319Z" transform="translate(-279.121 -49.191)" fill="none"/>
    </clipPath>
    <linearGradient id="linear-gradient-6" x1="-19.292" y1="1.569" x2="-19.223" y2="1.569" xlink:href="#linear-gradient"/>
    <clipPath id="clip-path-7">
      <path id="Path_64" data-name="Path 64" d="M306.237,31.728c-2.086,2.233-3.144,5.3-3.144,9.107v.673h-1.009a3.319,3.319,0,0,0-3.2,2.44l-.277,1.01a2.283,2.283,0,0,0,2.2,2.889,2.285,2.285,0,0,1,2.284,2.284v19.6a3.264,3.264,0,0,0,3.264,3.264,3.33,3.33,0,0,0,3.321-3.32V51.165A3.319,3.319,0,0,1,313,47.846h1.538a1.933,1.933,0,0,0,2.089-1.438V44.2a1.9,1.9,0,0,0-.285-2.038c-.6-.6-1.3-.559-2.234-.559l-4.426-.1V40.9a7.046,7.046,0,0,1,1.416-4.706,4.934,4.934,0,0,1,3.991-1.623,5.315,5.315,0,0,1,1.58.155,1.1,1.1,0,0,0,1.046-.708l1.51-3.961a1.1,1.1,0,0,0-.576-1.389,23.81,23.81,0,0,0-3.437-.312c-3.86,0-6.878,1.136-8.971,3.376" transform="translate(-298.525 -28.352)" fill="none"/>
    </clipPath>
    <linearGradient id="linear-gradient-7" x1="-8.825" y1="1.4" x2="-8.795" y2="1.4" xlink:href="#linear-gradient"/>
    <clipPath id="clip-path-8">
      <path id="Path_65" data-name="Path 65" d="M340.146,37.974l-.413.126c-1.119.342-1.849.944-1.849,2.114l-.035,2.529a2.66,2.66,0,0,1-2.66,2.66,2.661,2.661,0,0,0-2.573,1.982l-.2.758a2.867,2.867,0,0,0,2.772,3.6c1.469,0,2.66.074,2.66,1.543V73.231a3.292,3.292,0,1,0,6.584-.019V53.943c0-1.833,1.487-2.2,3.32-2.2h.926a2.915,2.915,0,0,0,2.82-2.173,3.319,3.319,0,0,0-3.209-4.165h-.537a3.32,3.32,0,0,1-3.32-3.319v-.935a3.313,3.313,0,0,0-4.287-3.174" transform="translate(-332.32 -37.828)" fill="none"/>
    </clipPath>
    <linearGradient id="linear-gradient-8" x1="-10.36" y1="1.462" x2="-10.329" y2="1.462" xlink:href="#linear-gradient"/>
    <clipPath id="clip-path-9">
      <path id="Path_66" data-name="Path 66" d="M438.717,72.561a11.749,11.749,0,0,1-4.327-4.443,12.96,12.96,0,0,1,0-12.4A11.784,11.784,0,0,1,444.8,49.649a11.968,11.968,0,0,1,6.089,1.608,11.548,11.548,0,0,1,4.327,4.4,13.214,13.214,0,0,1,0,12.524,11.6,11.6,0,0,1-4.327,4.4,11.942,11.942,0,0,1-6.089,1.6,11.767,11.767,0,0,1-6.088-1.63m-2.4-25.36a16.1,16.1,0,0,0-6,6.1,17.977,17.977,0,0,0,0,17.234,16.125,16.125,0,0,0,6,6.11,16.353,16.353,0,0,0,8.31,2.2,15.284,15.284,0,0,0,8.178-2.218,14.7,14.7,0,0,0,1.59-1.131,1.478,1.478,0,0,1,2.407,1.177,1.489,1.489,0,0,0,1.476,1.5,3.247,3.247,0,0,0,3.217-3.275V48.958a3.247,3.247,0,0,0-3.217-3.276,1.489,1.489,0,0,0-1.476,1.5,1.469,1.469,0,0,1-2.392,1.17,14.864,14.864,0,0,0-9.784-3.364,16.285,16.285,0,0,0-8.31,2.21" transform="translate(-428.112 -44.991)" fill="none"/>
    </clipPath>
    <linearGradient id="linear-gradient-9" x1="-8.059" y1="1.537" x2="-8.041" y2="1.537" xlink:href="#linear-gradient"/>
    <clipPath id="clip-path-10">
      <path id="Path_67" data-name="Path 67" d="M512.642,46.512,505.44,65.6a2.315,2.315,0,0,1-4.3.118l-8.435-19.2-.1-.227a2.151,2.151,0,0,0-1.965-1.3,2.37,2.37,0,0,0-2.13,3.333l11.961,27.5a3.376,3.376,0,0,1,.035,2.607l-3.268,8.088a2.369,2.369,0,0,0,2.155,3.276h.136a2.332,2.332,0,0,0,2.172-1.513l15.289-40.058a2.368,2.368,0,0,0-2.172-3.232,2.33,2.33,0,0,0-2.175,1.521" transform="translate(-488.306 -44.991)" fill="none"/>
    </clipPath>
    <linearGradient id="linear-gradient-10" x1="-10.295" y1="1.162" x2="-10.274" y2="1.162" xlink:href="#linear-gradient"/>
    <clipPath id="clip-path-11">
      <path id="Path_68" data-name="Path 68" d="M378.87,72.6a11.6,11.6,0,0,1-4.327-4.405,13.209,13.209,0,0,1,0-12.523,11.541,11.541,0,0,1,4.327-4.405,11.963,11.963,0,0,1,6.088-1.607,11.782,11.782,0,0,1,10.415,6.072,12.956,12.956,0,0,1,0,12.4A11.785,11.785,0,0,1,384.957,74.2a11.944,11.944,0,0,1-6.088-1.6m-1.908-25.383a15.153,15.153,0,0,0-1.605,1.147,1.469,1.469,0,0,1-2.392-1.171,1.489,1.489,0,0,0-1.475-1.5,3.247,3.247,0,0,0-3.217,3.276V74.913a3.247,3.247,0,0,0,3.217,3.276,1.489,1.489,0,0,0,1.475-1.5,1.478,1.478,0,0,1,2.407-1.177,14.873,14.873,0,0,0,1.591,1.132,15.292,15.292,0,0,0,8.178,2.217,16.354,16.354,0,0,0,8.31-2.2,16.131,16.131,0,0,0,6-6.11,17.975,17.975,0,0,0,0-17.233,16.106,16.106,0,0,0-6-6.1A16.285,16.285,0,0,0,385.14,45a15.292,15.292,0,0,0-8.178,2.217" transform="translate(-368.272 -45)" fill="none"/>
    </clipPath>
    <linearGradient id="linear-gradient-11" x1="-6.933" y1="1.537" x2="-6.914" y2="1.537" xlink:href="#linear-gradient"/>
    <clipPath id="clip-path-12">
      <path id="Path_69" data-name="Path 69" d="M371.374,50.529c-1.8,0-3.293,0-3.083.488V94.355a2.314,2.314,0,1,0,4.627,0V83.615c0-1.834.1-2.358.1-4.035V50.529Z" transform="translate(-368.271 -50.529)" fill="none"/>
    </clipPath>
    <linearGradient id="linear-gradient-12" x1="-46.815" y1="1.052" x2="-46.688" y2="1.052" xlink:href="#linear-gradient"/>
    <clipPath id="clip-path-13">
      <path id="Path_70" data-name="Path 70" d="M281.64,31.807a3.956,3.956,0,0,0-1.219,2.942,4.114,4.114,0,0,0,1.181,2.964,4.025,4.025,0,0,0,3,1.22,3.956,3.956,0,0,0,2.942-1.22,4.12,4.12,0,0,0,1.18-2.964,4.044,4.044,0,0,0-4.122-4.122,4.11,4.11,0,0,0-2.964,1.18" transform="translate(-280.421 -30.627)" fill="none"/>
    </clipPath>
    <linearGradient id="linear-gradient-13" x1="-21.217" y1="7.353" x2="-21.141" y2="7.353" xlink:href="#linear-gradient"/>
  </defs>
  <g id="Group_67" data-name="Group 67" transform="translate(112.075 18.921)">
    <g id="Group_66" data-name="Group 66" clip-path="url(#clip-path)">
      <rect id="Rectangle_51" data-name="Rectangle 51" width="38.055" height="43.778" transform="translate(0 0)" fill="url(#linear-gradient)"/>
    </g>
  </g>
  <g id="Group_69" data-name="Group 69" transform="translate(9.814)">
    <g id="Group_68" data-name="Group 68" clip-path="url(#clip-path-2)">
      <rect id="Rectangle_52" data-name="Rectangle 52" width="74.081" height="74.081" transform="translate(-11.433 11.433) rotate(-45)" fill="url(#linear-gradient-2)"/>
    </g>
  </g>
  <g id="Group_71" data-name="Group 71" transform="translate(0 29.343)">
    <g id="Group_70" data-name="Group 70" clip-path="url(#clip-path-3)">
      <rect id="Rectangle_53" data-name="Rectangle 53" width="86.78" height="86.78" transform="translate(-11.505 11.505) rotate(-45)" fill="url(#linear-gradient-3)"/>
    </g>
  </g>
  <g id="Group_73" data-name="Group 73" transform="translate(24.912 58.822)">
    <g id="Group_72" data-name="Group 72" clip-path="url(#clip-path-4)">
      <rect id="Rectangle_54" data-name="Rectangle 54" width="66.231" height="21.502" transform="translate(0 0)" fill="url(#linear-gradient-4)"/>
    </g>
  </g>
  <g id="Group_75" data-name="Group 75" transform="translate(154.258 30.766)">
    <g id="Group_74" data-name="Group 74" clip-path="url(#clip-path-5)">
      <rect id="Rectangle_55" data-name="Rectangle 55" width="19.803" height="31.771" transform="translate(-0.119 0)" fill="url(#linear-gradient-5)"/>
    </g>
  </g>
  <g id="Group_77" data-name="Group 77" transform="translate(175.389 30.91)">
    <g id="Group_76" data-name="Group 76" clip-path="url(#clip-path-6)">
      <rect id="Rectangle_56" data-name="Rectangle 56" width="9.083" height="31.483" transform="translate(-0.159 0)" fill="url(#linear-gradient-6)"/>
    </g>
  </g>
  <g id="Group_79" data-name="Group 79" transform="translate(187.582 17.815)">
    <g id="Group_78" data-name="Group 78" clip-path="url(#clip-path-7)">
      <rect id="Rectangle_57" data-name="Rectangle 57" width="21.22" height="44.639" transform="translate(-0.317 0)" fill="url(#linear-gradient-7)"/>
    </g>
  </g>
  <g id="Group_81" data-name="Group 81" transform="translate(208.818 23.77)">
    <g id="Group_80" data-name="Group 80" clip-path="url(#clip-path-8)">
      <rect id="Rectangle_58" data-name="Rectangle 58" width="20.118" height="38.685" transform="translate(-0.384 0)" fill="url(#linear-gradient-8)"/>
    </g>
  </g>
  <g id="Group_83" data-name="Group 83" transform="translate(269.009 28.271)">
    <g id="Group_82" data-name="Group 82" clip-path="url(#clip-path-9)">
      <rect id="Rectangle_59" data-name="Rectangle 59" width="33.379" height="33.859" transform="translate(0 0)" fill="url(#linear-gradient-9)"/>
    </g>
  </g>
  <g id="Group_85" data-name="Group 85" transform="translate(306.833 28.271)">
    <g id="Group_84" data-name="Group 84" clip-path="url(#clip-path-10)">
      <rect id="Rectangle_60" data-name="Rectangle 60" width="29.757" height="44.803" transform="translate(-0.48 0)" fill="url(#linear-gradient-10)"/>
    </g>
  </g>
  <g id="Group_87" data-name="Group 87" transform="translate(231.408 28.276)">
    <g id="Group_86" data-name="Group 86" clip-path="url(#clip-path-11)">
      <rect id="Rectangle_61" data-name="Rectangle 61" width="33.379" height="33.859" transform="translate(0 0)" fill="url(#linear-gradient-11)"/>
    </g>
  </g>
  <g id="Group_89" data-name="Group 89" transform="translate(231.407 31.751)">
    <g id="Group_88" data-name="Group 88" clip-path="url(#clip-path-12)">
      <rect id="Rectangle_62" data-name="Rectangle 62" width="4.939" height="46.182" transform="translate(-0.19 0)" fill="url(#linear-gradient-12)"/>
    </g>
  </g>
  <g id="Group_91" data-name="Group 91" transform="translate(176.206 19.245)">
    <g id="Group_90" data-name="Group 90" clip-path="url(#clip-path-13)">
      <rect id="Rectangle_63" data-name="Rectangle 63" width="8.305" height="8.306" transform="translate(0 0)" fill="url(#linear-gradient-13)"/>
    </g>
  </g>
</svg>
