<svg xmlns="http://www.w3.org/2000/svg" xmlns:xlink="http://www.w3.org/1999/xlink" width="86.615" height="69.762" viewBox="0 0 86.615 69.762">
  <defs>
    <clipPath id="clip-path">
      <path id="Path_59" data-name="Path 59" d="M22.524,0a6.906,6.906,0,0,0,0,13.811l12.068,0a4.569,4.569,0,0,1,3.978,2.321l1.484,2.627a2.161,2.161,0,0,0,1.881,1.1H84.345A1.835,1.835,0,0,0,85.7,16.8,31.784,31.784,0,0,0,61.847,6.052H36.281a2.048,2.048,0,0,1-1.891-1.26L33.422,2.47A4.016,4.016,0,0,0,29.715,0Z" transform="translate(-15.618 0)" fill="none"/>
    </clipPath>
    <linearGradient id="linear-gradient" x1="-0.185" y1="1.43" x2="-0.177" y2="1.43" gradientUnits="objectBoundingBox">
      <stop offset="0" stop-color="#27ef8d"/>
      <stop offset="0.375" stop-color="#27ef8d"/>
      <stop offset="1" stop-color="#27ef8d"/>
    </linearGradient>
    <clipPath id="clip-path-2">
      <path id="Path_60" data-name="Path 60" d="M6.967,46.7a6.967,6.967,0,1,0,0,13.934h31.04a5.6,5.6,0,0,1,5.169,3.447l.523,1.255a2.193,2.193,0,0,0,2.025,1.35h38.96a1.29,1.29,0,0,0,1.26-1.034,32.017,32.017,0,0,0,.21-11.94,1.149,1.149,0,0,0-1.128-.96H39.659a1.825,1.825,0,0,1-1.687-1.128l-.915-2.213A4.408,4.408,0,0,0,32.99,46.7Z" transform="translate(0 -46.698)" fill="none"/>
    </clipPath>
    <linearGradient id="linear-gradient-2" x1="-0.075" y1="0.955" x2="-0.067" y2="0.955" xlink:href="#linear-gradient"/>
    <clipPath id="clip-path-3">
      <path id="Path_61" data-name="Path 61" d="M45.957,93.612a6.312,6.312,0,0,0,0,12.623h22a2.621,2.621,0,0,1,2.547,1.773l1.814,3.627a1.158,1.158,0,0,0,1.055.643,31.835,31.835,0,0,0,21.916-9.323q.6-.6,1.176-1.241a1.23,1.23,0,0,0-.914-2.051H68.339a1.8,1.8,0,0,1-1.659-1.106L65.566,95.89a3.7,3.7,0,0,0-3.419-2.278Z" transform="translate(-39.646 -93.612)" fill="none"/>
    </clipPath>
    <linearGradient id="linear-gradient-3" x1="-0.376" y1="0.999" x2="-0.367" y2="0.999" xlink:href="#linear-gradient"/>
  </defs>
  <g id="Group_101" data-name="Group 101" transform="translate(-140 -36.619)">
    <g id="Group_94" data-name="Group 94" transform="translate(148.525 36.619)">
      <g id="Group_68" data-name="Group 68" transform="translate(0 0)" clip-path="url(#clip-path)">
        <rect id="Rectangle_52" data-name="Rectangle 52" width="64.348" height="64.348" transform="translate(-9.931 9.931) rotate(-45)" fill="url(#linear-gradient)"/>
      </g>
    </g>
    <g id="Group_95" data-name="Group 95" transform="translate(140 62.107)">
      <g id="Group_70" data-name="Group 70" transform="translate(0 0)" clip-path="url(#clip-path-2)">
        <rect id="Rectangle_53" data-name="Rectangle 53" width="75.379" height="75.379" transform="translate(-9.993 9.993) rotate(-45)" fill="url(#linear-gradient-2)"/>
      </g>
    </g>
    <g id="Group_96" data-name="Group 96" transform="translate(161.639 87.713)">
      <g id="Group_72" data-name="Group 72" transform="translate(0 0)" clip-path="url(#clip-path-3)">
        <rect id="Rectangle_54" data-name="Rectangle 54" width="57.53" height="18.677" transform="translate(0 0)" fill="url(#linear-gradient-3)"/>
      </g>
    </g>
  </g>
</svg>
