<svg id="Layer_1" data-name="Layer 1" xmlns="http://www.w3.org/2000/svg" xmlns:xlink="http://www.w3.org/1999/xlink" viewBox="0 0 540 160"><defs><style>.cls-1{fill:#fff;}.cls-2{fill:#a6a6a6;}.cls-3{fill:url(#linear-gradient);}</style><linearGradient id="linear-gradient" x1="5.36" y1="657.46" x2="5.36" y2="693.5" gradientTransform="matrix(16.02, 0, 0, -16.01, 753.2, 10912.44)" gradientUnits="userSpaceOnUse"><stop offset="0" stop-color="#1a1a1a" stop-opacity="0.1"/><stop offset="0.12" stop-color="#212121" stop-opacity="0.15"/><stop offset="0.31" stop-color="#353535" stop-opacity="0.23"/><stop offset="0.53" stop-color="#575757" stop-opacity="0.32"/><stop offset="0.78" stop-color="#858585" stop-opacity="0.42"/><stop offset="1" stop-color="#b3b3b3" stop-opacity="0.51"/></linearGradient></defs><title>app-store</title><path class="cls-1" d="M979.42,368a15.33,15.33,0,0,1-15.33,15.32H461.93A15.35,15.35,0,0,1,446.56,368V245.84a15.37,15.37,0,0,1,15.36-15.34H964.07a15.34,15.34,0,0,1,15.34,15.34h0V368Z" transform="translate(-443 -226.93)"/><path class="cls-2" d="M964.07,386.93H461.93A18.93,18.93,0,0,1,443,368V245.84a18.94,18.94,0,0,1,18.93-18.91H964.07A19,19,0,0,1,983,245.84V368a18.93,18.93,0,0,1-18.92,18.89Z" transform="translate(-443 -226.93)"/><path d="M979.42,368a15.33,15.33,0,0,1-15.33,15.32H461.93A15.35,15.35,0,0,1,446.56,368V245.84a15.37,15.37,0,0,1,15.36-15.34H964.07a15.34,15.34,0,0,1,15.34,15.34h0V368Z" transform="translate(-443 -226.93)"/><path class="cls-1" d="M563.58,306.09c-.12-12.9,10.56-19.17,11-19.46a23.76,23.76,0,0,0-18.71-10.11c-7.87-.83-15.51,4.71-19.52,4.71s-10.27-4.63-16.92-4.49a24.92,24.92,0,0,0-21,12.79c-9.07,15.7-2.31,38.76,6.38,51.45,4.35,6.22,9.43,13.15,16.07,12.91s8.93-4.14,16.78-4.14,10.06,4.14,16.84,4c7-.11,11.37-6.24,15.57-12.51a51.28,51.28,0,0,0,7.12-14.5c-.16-.06-13.55-5.17-13.69-20.62Zm-12.81-37.92c3.5-4.37,5.89-10.32,5.23-16.36-5.06.22-11.39,3.5-15,7.78-3.23,3.77-6.11,9.95-5.36,15.76C541.28,275.76,547.12,272.47,550.77,268.17Z" transform="translate(-443 -226.93)"/><path class="cls-3" d="M964.07,226.93h-269l105.35,160H964.07A18.94,18.94,0,0,0,983,368V245.84A18.94,18.94,0,0,0,964.07,226.93Z" transform="translate(-443 -226.93)"/><path class="cls-1" d="M657.78,353h-9.09l-5-15.64H626.4L621.66,353h-8.85L630,299.73h10.59Zm-15.57-22.2-4.5-13.9q-.71-2.13-2.69-10h-.16q-.79,3.4-2.53,10l-4.43,13.9Zm59.58,2.53q0,9.79-5.32,15.48a15.61,15.61,0,0,1-11.84,5.06q-7.63,0-11-5.45v20.15h-8.53V327.21q0-6.15-.32-12.62h7.5l.48,6.09H673q4.27-6.88,13-6.88a14.25,14.25,0,0,1,11.34,5.37Q701.79,324.55,701.79,333.31Zm-8.69.31a15.83,15.83,0,0,0-2.53-9.25,8.74,8.74,0,0,0-7.43-3.79,8.87,8.87,0,0,0-5.73,2.09,9.71,9.71,0,0,0-3.36,5.49,11.14,11.14,0,0,0-.4,2.6v6.41a10.27,10.27,0,0,0,2.57,7.07,8.53,8.53,0,0,0,6.68,2.88,8.75,8.75,0,0,0,7.5-3.71Q693.1,339.71,693.1,333.62Zm52.86-.31q0,9.79-5.32,15.48a15.62,15.62,0,0,1-11.84,5.06q-7.63,0-11-5.45v20.15H709.3V327.21q0-6.15-.32-12.62h7.5l.48,6.09h.16q4.26-6.88,13-6.88a14.27,14.27,0,0,1,11.34,5.37q4.53,5.38,4.54,14.15Zm-8.7.31a15.83,15.83,0,0,0-2.53-9.25,8.73,8.73,0,0,0-7.42-3.79,8.91,8.91,0,0,0-5.74,2.09,9.7,9.7,0,0,0-3.35,5.49,11.39,11.39,0,0,0-.4,2.6v6.41a10.31,10.31,0,0,0,2.57,7.07,8.55,8.55,0,0,0,6.68,2.88,8.74,8.74,0,0,0,7.5-3.71Q737.27,339.71,737.27,333.62ZM795.35,338a14.22,14.22,0,0,1-4.73,11.06q-5.2,4.66-14.51,4.66-8.6,0-13.79-3.32l2-7.11a23.74,23.74,0,0,0,12.33,3.32q4.83,0,7.5-2.17a7.1,7.1,0,0,0,2.69-5.8,7.43,7.43,0,0,0-2.22-5.45,20.56,20.56,0,0,0-7.35-4.11q-14-5.22-14-15.25a13.47,13.47,0,0,1,4.94-10.74q4.93-4.19,13.08-4.19a25.85,25.85,0,0,1,12.09,2.53l-2.14,7A21.14,21.14,0,0,0,781,306a10.41,10.41,0,0,0-7.06,2.21,6.33,6.33,0,0,0-2.14,4.83,6.52,6.52,0,0,0,2.45,5.21q2.13,1.89,7.74,4.11,6.88,2.77,10.11,6.47a13.49,13.49,0,0,1,3.25,9.23ZM823.63,321h-9.41v18.64q0,7.11,5,7.11a15,15,0,0,0,3.79-.4l.24,6.48a19.34,19.34,0,0,1-6.64.94,10.23,10.23,0,0,1-7.9-3.08q-2.84-3.08-2.85-10.35V321h-5.6v-6.4h5.6v-7l8.38-2.53v9.56h9.41V321ZM866,333.47q0,8.85-5.06,14.54-5.29,5.85-14.06,5.85-8.46,0-13.48-5.6a20.42,20.42,0,0,1-5-14.14q0-8.92,5.17-14.61t14-5.69q8.45,0,13.59,5.61Q866,324.85,866,333.47Zm-8.84.2a17.19,17.19,0,0,0-2.29-9.06,8.45,8.45,0,0,0-7.67-4.57,8.57,8.57,0,0,0-7.82,4.57,17.47,17.47,0,0,0-2.29,9.22,17.14,17.14,0,0,0,2.29,9.06,8.61,8.61,0,0,0,7.75,4.57q4.89,0,7.67-4.65a17.26,17.26,0,0,0,2.36-9.15Zm36.59-11.58a14.85,14.85,0,0,0-2.69-.24,8.05,8.05,0,0,0-7,3.4,12.81,12.81,0,0,0-2.13,7.58V353h-8.53v-26.3q0-6-.25-12.09h7.43l.31,7.35h.24a13.17,13.17,0,0,1,4.27-6.09,10.32,10.32,0,0,1,6.17-2.06,13.7,13.7,0,0,1,2.13.16v8.14ZM931.89,332a20,20,0,0,1-.31,3.87H906q.14,5.69,3.71,8.7a12.7,12.7,0,0,0,8.37,2.68,28.32,28.32,0,0,0,10.36-1.81l1.34,5.92a32,32,0,0,1-12.87,2.37q-8.93,0-14-5.25t-5.09-14.1q0-8.68,4.75-14.45a16.35,16.35,0,0,1,13.43-6.16q8.3,0,12.57,6.16A20.72,20.72,0,0,1,931.89,332Zm-8.14-2.21a11.55,11.55,0,0,0-1.66-6.56,7.45,7.45,0,0,0-6.8-3.56,8.09,8.09,0,0,0-6.79,3.48,12.74,12.74,0,0,0-2.53,6.63h17.77Z" transform="translate(-443 -226.93)"/><path class="cls-1" d="M623.94,280.91a54.5,54.5,0,0,1-6.14-.31V254.85a46.46,46.46,0,0,1,7.22-.54c9.79,0,14.29,4.81,14.29,12.66C639.32,276,634,280.91,623.94,280.91Zm1.43-23.3a17.12,17.12,0,0,0-3.38.27v19.57a22.15,22.15,0,0,0,2.83.12c6.41,0,10.06-3.65,10.06-10.48C634.89,261,631.59,257.61,625.37,257.61Zm28,23.49c-5.51,0-9.09-4.12-9.09-9.71,0-5.83,3.65-10,9.4-10,5.43,0,9.09,3.92,9.09,9.67S659,281.1,653.37,281.1Zm.16-16.62c-3,0-5,2.83-5,6.79s2,6.72,4.93,6.72,4.93-3,4.93-6.8-1.94-6.71-4.89-6.71Zm40.69-2.68-5.9,18.87h-3.85L682,272.48a62.13,62.13,0,0,1-1.52-6.09h-.08a40.84,40.84,0,0,1-1.51,6.09l-2.6,8.19h-3.89l-5.56-18.87h4.31l2.14,9q.76,3.2,1.28,6.06h.08c.31-1.59.81-3.57,1.55-6l2.68-9h3.42l2.57,8.81c.62,2.14,1.12,4.23,1.52,6.21h.11a54.31,54.31,0,0,1,1.28-6.21l2.29-8.81h4.12Zm21.73,18.87h-4.19V269.84c0-3.34-1.28-5-3.81-5a4.36,4.36,0,0,0-4.19,4.62v11.22h-4.19V267.2c0-1.67,0-3.46-.16-5.4h3.69l.2,2.91h.12a6.78,6.78,0,0,1,6-3.3c4,0,6.56,3,6.56,8v11.3Zm11.57,0h-4.2V253.15h4.2Zm15.29.43c-5.51,0-9.09-4.12-9.09-9.71,0-5.83,3.65-10,9.4-10,5.44,0,9.09,3.92,9.09,9.67S748.44,281.1,742.81,281.1Zm.16-16.62c-3,0-5,2.83-5,6.79s2,6.72,4.93,6.72,4.93-3,4.93-6.8-1.93-6.71-4.89-6.71Zm25.78,16.19-.3-2.17h-.11a6.44,6.44,0,0,1-5.52,2.6,5.49,5.49,0,0,1-5.78-5.55c0-4.66,4-7.07,11-7.07v-.35c0-2.48-1.32-3.73-3.92-3.73a8.83,8.83,0,0,0-4.93,1.4l-.85-2.76a12.07,12.07,0,0,1,6.48-1.63c4.93,0,7.42,2.6,7.42,7.81v6.95a28.5,28.5,0,0,0,.27,4.51h-3.78Zm-.58-9.4c-4.66,0-7,1.13-7,3.81A2.67,2.67,0,0,0,764,278a4,4,0,0,0,4.12-3.84Zm24.45,9.4-.2-3h-.12a6.33,6.33,0,0,1-6.06,3.46c-4.55,0-7.92-4-7.92-9.63,0-5.9,3.49-10.06,8.26-10.06,2.53,0,4.31.85,5.32,2.56H792V253.15h4.2v22.44c0,1.82,0,3.53.16,5.09h-3.73Zm-.62-11.1c0-2.64-1.75-4.89-4.42-4.89-3.11,0-5,2.76-5,6.64s2,6.41,4.93,6.41c2.64,0,4.5-2.29,4.5-5v-3.14Zm30.82,11.53c-5.51,0-9.08-4.12-9.08-9.71,0-5.83,3.65-10,9.4-10,5.44,0,9.09,3.92,9.09,9.67s-3.76,10-9.4,10Zm.16-16.62c-3,0-5,2.83-5,6.79s2,6.72,4.93,6.72,4.93-3,4.93-6.8-1.93-6.71-4.89-6.71Zm31.8,16.19h-4.2V269.84c0-3.34-1.28-5-3.81-5a4.35,4.35,0,0,0-4.19,4.62v11.22h-4.2V267.2c0-1.67,0-3.46-.16-5.4h3.69l.2,2.91h.12a6.78,6.78,0,0,1,6-3.3c4,0,6.57,3,6.57,8ZM883,265h-4.61v9.16c0,2.33.81,3.5,2.44,3.5a8.26,8.26,0,0,0,1.86-.2l.12,3.18a9.29,9.29,0,0,1-3.25.47c-3.31,0-5.28-1.82-5.28-6.6V265H871.5v-3.14h2.75v-3.46l4.12-1.24v4.7H883V265Zm22.2,15.72H901V269.92c0-3.38-1.28-5.09-3.81-5.09a4.11,4.11,0,0,0-4.2,4.47v11.38h-4.19V253.15H893v11.34h.08a6.36,6.36,0,0,1,5.68-3.07c4,0,6.44,3.1,6.44,8v11.22Zm22.75-8.43H915.35c.08,3.57,2.45,5.59,5.95,5.59a14.18,14.18,0,0,0,5.09-.89l.65,2.91a15.76,15.76,0,0,1-6.33,1.16c-5.9,0-9.4-3.73-9.4-9.51s3.58-10.13,8.92-10.13c4.82,0,7.85,3.57,7.85,9a8.08,8.08,0,0,1-.14,1.9Zm-3.85-3c0-2.91-1.47-5-4.15-5-2.41,0-4.31,2.1-4.59,5h8.74Z" transform="translate(-443 -226.93)"/></svg>